<?xml version="1.0" encoding="UTF-8" standalone="no"?><svg xmlns="http://www.w3.org/2000/svg" xmlns:xlink= "http://www.w3.org/1999/xlink" width="600" height="390" aria-label="A chart." style="overflow: hidden;"><defs id="_ABSTRACT_RENDERER_ID_12"><filter id="_ABSTRACT_RENDERER_ID_13"><feGaussianBlur in="SourceAlpha" stdDeviation="2"></feGaussianBlur><feOffset dx="1" dy="1"></feOffset><feComponentTransfer><feFuncA type="linear" slope="0.1"></feFuncA></feComponentTransfer><feMerge><feMergeNode></feMergeNode><feMergeNode in="SourceGraphic"></feMergeNode></feMerge></filter></defs><rect x="0" y="0" width="600" height="390" stroke="none" stroke-width="0" fill="#ffffff"></rect><g><text text-anchor="start" x="115" y="52.05" font-family="Arial" font-size="13" font-weight="bold" stroke="none" stroke-width="0" fill="#000000">Ratio of Shares</text><rect x="115" y="41" width="371" height="13" stroke="none" stroke-width="0" fill-opacity="0" fill="#ffffff"></rect></g><g><rect x="365" y="75" width="121" height="181" stroke="none" stroke-width="0" fill-opacity="0" fill="#ffffff"></rect><g column-id="Exchanges"><rect x="365" y="75" width="121" height="13" stroke="none" stroke-width="0" fill-opacity="0" fill="#ffffff"></rect><g><text text-anchor="start" x="383" y="86.05" font-family="Arial" font-size="13" stroke="none" stroke-width="0" fill="#222222">Exchanges</text></g><circle cx="371.5" cy="81.5" r="6.5" stroke="none" stroke-width="0" fill="#3366cc"></circle></g><g column-id="Elon Musk"><rect x="365" y="96" width="121" height="13" stroke="none" stroke-width="0" fill-opacity="0" fill="#ffffff"></rect><g><text text-anchor="start" x="383" y="107.05" font-family="Arial" font-size="13" stroke="none" stroke-width="0" fill="#222222">Elon Musk</text></g><circle cx="371.5" cy="102.5" r="6.5" stroke="none" stroke-width="0" fill="#dc3912"></circle></g><g column-id="Pancake Swap"><rect x="365" y="117" width="121" height="13" stroke="none" stroke-width="0" fill-opacity="0" fill="#ffffff"></rect><g><text text-anchor="start" x="383" y="128.05" font-family="Arial" font-size="13" stroke="none" stroke-width="0" fill="#222222">Pancake Swap</text></g><circle cx="371.5" cy="123.5" r="6.5" stroke="none" stroke-width="0" fill="#ff9900"></circle></g><g column-id="MetHUH"><rect x="365" y="138" width="121" height="13" stroke="none" stroke-width="0" fill-opacity="0" fill="#ffffff"></rect><g><text text-anchor="start" x="383" y="149.05" font-family="Arial" font-size="13" stroke="none" stroke-width="0" fill="#222222">MetHUH</text></g><circle cx="371.5" cy="144.5" r="6.5" stroke="none" stroke-width="0" fill="#109618"></circle></g><g column-id="Marketing"><rect x="365" y="159" width="121" height="13" stroke="none" stroke-width="0" fill-opacity="0" fill="#ffffff"></rect><g><text text-anchor="start" x="383" y="170.05" font-family="Arial" font-size="13" stroke="none" stroke-width="0" fill="#222222">Marketing</text></g><circle cx="371.5" cy="165.5" r="6.5" stroke="none" stroke-width="0" fill="#990099"></circle></g><g column-id="Presale"><rect x="365" y="180" width="121" height="13" stroke="none" stroke-width="0" fill-opacity="0" fill="#ffffff"></rect><g><text text-anchor="start" x="383" y="191.05" font-family="Arial" font-size="13" stroke="none" stroke-width="0" fill="#222222">Presale</text></g><circle cx="371.5" cy="186.5" r="6.5" stroke="none" stroke-width="0" fill="#0099c6"></circle></g><g column-id="Development"><rect x="365" y="201" width="121" height="13" stroke="none" stroke-width="0" fill-opacity="0" fill="#ffffff"></rect><g><text text-anchor="start" x="383" y="212.05" font-family="Arial" font-size="13" stroke="none" stroke-width="0" fill="#222222">Development</text></g><circle cx="371.5" cy="207.5" r="6.5" stroke="none" stroke-width="0" fill="#dd4477"></circle></g><g column-id="Influencers"><rect x="365" y="222" width="121" height="13" stroke="none" stroke-width="0" fill-opacity="0" fill="#ffffff"></rect><g><text text-anchor="start" x="383" y="233.05" font-family="Arial" font-size="13" stroke="none" stroke-width="0" fill="#222222">Influencers</text></g><circle cx="371.5" cy="228.5" r="6.5" stroke="none" stroke-width="0" fill="#66aa00"></circle></g><g column-id="HUH"><rect x="365" y="243" width="121" height="13" stroke="none" stroke-width="0" fill-opacity="0" fill="#ffffff"></rect><g><text text-anchor="start" x="383" y="254.05" font-family="Arial" font-size="13" stroke="none" stroke-width="0" fill="#222222">HUH</text></g><circle cx="371.5" cy="249.5" r="6.5" stroke="none" stroke-width="0" fill="#b82e2e"></circle></g></g><g><path d="M344,184.6L344,207.4A114,91.2,0,0,1,297.00751876134194,281.1823498869952L297.00751876134194,258.3823498869952A114,91.2,0,0,0,344,184.6" stroke="#264d99" stroke-width="1" fill="#264d99"></path><path d="M230,184.6L230,207.4L297.00751876134194,281.1823498869952L297.00751876134194,258.3823498869952" stroke="#264d99" stroke-width="1" fill="#264d99"></path><path d="M230,184.6L230,93.39999999999999A114,91.2,0,0,1,297.00751876134194,258.3823498869952L230,184.6A0,0,0,0,0,230,184.6" stroke="#3366cc" stroke-width="1" fill="#3366cc"></path><text text-anchor="start" x="298.75670456816636" y="168.58234421228275" font-family="Arial" font-size="13" stroke="none" stroke-width="0" fill="#ffffff">40%</text></g><g><path d="M230,184.6L230,207.4L215.71201137366938,116.9191392401196L215.71201137366938,94.11913924011961" stroke="#8a2323" stroke-width="1" fill="#8a2323"></path><path d="M230,184.6L215.71201137366938,94.11913924011961A114,91.2,0,0,1,230,93.39999999999999L230,184.6A0,0,0,0,0,230,184.6" stroke="#b82e2e" stroke-width="1" fill="#b82e2e"></path></g><g><path d="M230,184.6L230,207.4L181.46116076158168,124.87977281509902L181.46116076158168,102.07977281509902" stroke="#4d8000" stroke-width="1" fill="#4d8000"></path><path d="M230,184.6L181.46116076158168,102.07977281509902A114,91.2,0,0,1,215.71201137366938,94.11913924011961L230,184.6A0,0,0,0,0,230,184.6" stroke="#66aa00" stroke-width="1" fill="#66aa00"></path></g><g><path d="M230,184.6L230,207.4L151.96162992412945,140.9180611791673L151.96162992412945,118.11806117916728" stroke="#a63359" stroke-width="1" fill="#a63359"></path><path d="M230,184.6L151.96162992412945,118.11806117916728A114,91.2,0,0,1,181.46116076158168,102.07977281509902L230,184.6A0,0,0,0,0,230,184.6" stroke="#dd4477" stroke-width="1" fill="#dd4477"></path></g><g><path d="M230,184.6L230,207.4L130.10103847499954,163.46406492192355L130.10103847499954,140.66406492192354" stroke="#007395" stroke-width="1" fill="#007395"></path><path d="M230,184.6L130.10103847499954,140.66406492192354A114,91.2,0,0,1,151.96162992412945,118.11806117916728L230,184.6A0,0,0,0,0,230,184.6" stroke="#0099c6" stroke-width="1" fill="#0099c6"></path></g><g><path d="M230,184.6L230,207.4L118.0192534169295,190.3108241097819L118.0192534169295,167.51082410978188" stroke="#730073" stroke-width="1" fill="#730073"></path><path d="M230,184.6L118.0192534169295,167.51082410978188A114,91.2,0,0,1,130.10103847499954,140.66406492192354L230,184.6A0,0,0,0,0,230,184.6" stroke="#990099" stroke-width="1" fill="#990099"></path></g><g><path d="M121.57955714235251,212.78234988699523L121.57955714235251,235.58234988699525A114,91.2,0,0,1,116,207.4L116,184.6A114,91.2,0,0,0,121.57955714235251,212.78234988699523" stroke="#0c7112" stroke-width="1" fill="#0c7112"></path><path d="M230,184.6L230,207.4L121.57955714235251,235.58234988699525L121.57955714235251,212.78234988699523" stroke="#0c7112" stroke-width="1" fill="#0c7112"></path><path d="M230,184.6L121.57955714235251,212.78234988699523A114,91.2,0,0,1,118.01925341692946,167.51082410978202L230,184.6A0,0,0,0,0,230,184.6" stroke="#109618" stroke-width="1" fill="#109618"></path><text text-anchor="start" x="129.98759875587297" y="193.55905351323136" font-family="Arial" font-size="13" stroke="none" stroke-width="0" fill="#ffffff">8%</text></g><g><path d="M162.99248123865806,258.3823498869952L162.99248123865806,281.1823498869952A114,91.2,0,0,1,121.57955714235251,235.58234988699525L121.57955714235251,212.78234988699523A114,91.2,0,0,0,162.99248123865806,258.3823498869952" stroke="#bf7300" stroke-width="1" fill="#bf7300"></path><path d="M230,184.6L230,207.4L162.99248123865806,281.1823498869952L162.99248123865806,258.3823498869952" stroke="#bf7300" stroke-width="1" fill="#bf7300"></path><path d="M230,184.6L162.99248123865806,258.3823498869952A114,91.2,0,0,1,121.57955714235251,212.78234988699523L230,184.6A0,0,0,0,0,230,184.6" stroke="#ff9900" stroke-width="1" fill="#ff9900"></path><text text-anchor="start" x="147.7929102321046" y="228.08112977572583" font-family="Arial" font-size="13" stroke="none" stroke-width="0" fill="#ffffff">10%</text></g><g><path d="M297.00751876134194,258.3823498869952L297.00751876134194,281.1823498869952A114,91.2,0,0,1,162.99248123865803,281.1823498869952L162.99248123865803,258.3823498869952A114,91.2,0,0,0,297.00751876134194,258.3823498869952" stroke="#a52b0e" stroke-width="1" fill="#a52b0e"></path><path d="M230,184.6L297.00751876134194,258.3823498869952A114,91.2,0,0,1,162.99248123865803,258.3823498869952L230,184.6A0,0,0,0,0,230,184.6" stroke="#dc3912" stroke-width="1" fill="#dc3912"></path><text text-anchor="start" x="217.00000000000003" y="260.19952481567725" font-family="Arial" font-size="13" stroke="none" stroke-width="0" fill="#ffffff">20%</text></g><g></g></svg>