<?xml version="1.0" encoding="UTF-8" standalone="no"?><svg xmlns="http://www.w3.org/2000/svg" xmlns:xlink= "http://www.w3.org/1999/xlink" width="1548.7048750279178" height="1006.6581687681468" aria-label="A chart." style="overflow: hidden;"><defs id="_ABSTRACT_RENDERER_ID_27"><filter id="_ABSTRACT_RENDERER_ID_28"><feGaussianBlur in="SourceAlpha" stdDeviation="2"></feGaussianBlur><feOffset dx="1" dy="1"></feOffset><feComponentTransfer><feFuncA type="linear" slope="0.1"></feFuncA></feComponentTransfer><feMerge><feMergeNode></feMergeNode><feMergeNode in="SourceGraphic"></feMergeNode></feMerge></filter></defs><rect x="0" y="0" width="1548.7048750279178" height="1006.6581687681468" stroke="none" stroke-width="0" fill="#ffffff"></rect><g><text text-anchor="start" x="296" y="161.45" font-family="Arial" font-size="17" font-weight="bold" stroke="none" stroke-width="0" fill="#000000">Ratio of Shares</text><rect x="296" y="147" width="957" height="17" stroke="none" stroke-width="0" fill-opacity="0" fill="#ffffff"></rect></g><g><rect x="915" y="192" width="338" height="241" stroke="none" stroke-width="0" fill-opacity="0" fill="#ffffff"></rect><g column-id="Exchanges"><rect x="915" y="192" width="338" height="17" stroke="none" stroke-width="0" fill-opacity="0" fill="#ffffff"></rect><g><text text-anchor="start" x="938" y="206.45" font-family="Arial" font-size="17" stroke="none" stroke-width="0" fill="#222222">Exchanges</text></g><circle cx="923.5" cy="200.5" r="8.5" stroke="none" stroke-width="0" fill="#3366cc"></circle></g><g column-id="Elon Musk"><rect x="915" y="220" width="338" height="17" stroke="none" stroke-width="0" fill-opacity="0" fill="#ffffff"></rect><g><text text-anchor="start" x="938" y="234.45" font-family="Arial" font-size="17" stroke="none" stroke-width="0" fill="#222222">Elon Musk</text></g><circle cx="923.5" cy="228.5" r="8.5" stroke="none" stroke-width="0" fill="#dc3912"></circle></g><g column-id="Pancake Swap"><rect x="915" y="248" width="338" height="17" stroke="none" stroke-width="0" fill-opacity="0" fill="#ffffff"></rect><g><text text-anchor="start" x="938" y="262.45" font-family="Arial" font-size="17" stroke="none" stroke-width="0" fill="#222222">Pancake Swap</text></g><circle cx="923.5" cy="256.5" r="8.5" stroke="none" stroke-width="0" fill="#ff9900"></circle></g><g column-id="MetHUH"><rect x="915" y="276" width="338" height="17" stroke="none" stroke-width="0" fill-opacity="0" fill="#ffffff"></rect><g><text text-anchor="start" x="938" y="290.45" font-family="Arial" font-size="17" stroke="none" stroke-width="0" fill="#222222">MetHUH</text></g><circle cx="923.5" cy="284.5" r="8.5" stroke="none" stroke-width="0" fill="#109618"></circle></g><g column-id="Marketing"><rect x="915" y="304" width="338" height="17" stroke="none" stroke-width="0" fill-opacity="0" fill="#ffffff"></rect><g><text text-anchor="start" x="938" y="318.45" font-family="Arial" font-size="17" stroke="none" stroke-width="0" fill="#222222">Marketing</text></g><circle cx="923.5" cy="312.5" r="8.5" stroke="none" stroke-width="0" fill="#990099"></circle></g><g column-id="Presale"><rect x="915" y="332" width="338" height="17" stroke="none" stroke-width="0" fill-opacity="0" fill="#ffffff"></rect><g><text text-anchor="start" x="938" y="346.45" font-family="Arial" font-size="17" stroke="none" stroke-width="0" fill="#222222">Presale</text></g><circle cx="923.5" cy="340.5" r="8.5" stroke="none" stroke-width="0" fill="#0099c6"></circle></g><g column-id="Development"><rect x="915" y="360" width="338" height="17" stroke="none" stroke-width="0" fill-opacity="0" fill="#ffffff"></rect><g><text text-anchor="start" x="938" y="374.45" font-family="Arial" font-size="17" stroke="none" stroke-width="0" fill="#222222">Development</text></g><circle cx="923.5" cy="368.5" r="8.5" stroke="none" stroke-width="0" fill="#dd4477"></circle></g><g column-id="Influencers"><rect x="915" y="388" width="338" height="17" stroke="none" stroke-width="0" fill-opacity="0" fill="#ffffff"></rect><g><text text-anchor="start" x="938" y="402.45" font-family="Arial" font-size="17" stroke="none" stroke-width="0" fill="#222222">Influencers</text></g><circle cx="923.5" cy="396.5" r="8.5" stroke="none" stroke-width="0" fill="#66aa00"></circle></g><g column-id="HUH"><rect x="915" y="416" width="338" height="17" stroke="none" stroke-width="0" fill-opacity="0" fill="#ffffff"></rect><g><text text-anchor="start" x="938" y="430.45" font-family="Arial" font-size="17" stroke="none" stroke-width="0" fill="#222222">HUH</text></g><circle cx="923.5" cy="424.5" r="8.5" stroke="none" stroke-width="0" fill="#b82e2e"></circle></g></g><g><path d="M887,473.5L887,532.5A295,236,0,0,1,765.3966494262795,723.4280106724876L765.3966494262795,664.4280106724876A295,236,0,0,0,887,473.5" stroke="#264d99" stroke-width="1" fill="#264d99"></path><path d="M592,473.5L592,532.5L765.3966494262795,723.4280106724876L765.3966494262795,664.4280106724876" stroke="#264d99" stroke-width="1" fill="#264d99"></path><path d="M592,473.5L592,237.5A295,236,0,0,1,765.3966494262795,664.4280106724876L592,473.5A0,0,0,0,0,592,473.5" stroke="#3366cc" stroke-width="1" fill="#3366cc"></path><text text-anchor="start" x="820.8030655711702" y="416.53377564650395" font-family="Arial" font-size="17" stroke="none" stroke-width="0" fill="#ffffff">40%</text></g><g><path d="M592,473.5L592,532.5L555.0266960985304,298.3609304897832L555.0266960985304,239.36093048978321" stroke="#8a2323" stroke-width="1" fill="#8a2323"></path><path d="M592,473.5L555.0266960985304,239.36093048978321A295,236,0,0,1,592,237.5L592,473.5A0,0,0,0,0,592,473.5" stroke="#b82e2e" stroke-width="1" fill="#b82e2e"></path><text text-anchor="start" x="563.2821405905811" y="270.1216339181971" font-family="Arial" font-size="17" stroke="none" stroke-width="0" fill="#ffffff">2%</text></g><g><path d="M592,473.5L592,532.5L466.3951089883035,318.9608156180194L466.3951089883035,259.9608156180194" stroke="#4d8000" stroke-width="1" fill="#4d8000"></path><path d="M592,473.5L466.3951089883035,259.9608156180194A295,236,0,0,1,555.0266960985304,239.36093048978321L592,473.5A0,0,0,0,0,592,473.5" stroke="#66aa00" stroke-width="1" fill="#66aa00"></path><text text-anchor="start" x="506.3016534971183" y="279.61535761432407" font-family="Arial" font-size="17" stroke="none" stroke-width="0" fill="#ffffff">5%</text></g><g><path d="M592,473.5L592,532.5L390.0586037510368,360.46340392854694L390.0586037510368,301.46340392854694" stroke="#a63359" stroke-width="1" fill="#a63359"></path><path d="M592,473.5L390.0586037510368,301.46340392854694A295,236,0,0,1,466.3951089883035,259.9608156180194L592,473.5A0,0,0,0,0,592,473.5" stroke="#dd4477" stroke-width="1" fill="#dd4477"></path><text text-anchor="start" x="432.56326078334297" y="308.54604448494536" font-family="Arial" font-size="17" stroke="none" stroke-width="0" fill="#ffffff">5%</text></g><g><path d="M592,473.5L592,532.5L333.48952938706026,418.8061329119952L333.48952938706026,359.8061329119952" stroke="#007395" stroke-width="1" fill="#007395"></path><path d="M592,473.5L333.48952938706026,359.8061329119952A295,236,0,0,1,390.0586037510368,301.46340392854694L592,473.5A0,0,0,0,0,592,473.5" stroke="#0099c6" stroke-width="1" fill="#0099c6"></path><text text-anchor="start" x="373.05647816700434" y="352.99573700418586" font-family="Arial" font-size="17" stroke="none" stroke-width="0" fill="#ffffff">5%</text></g><g><path d="M592,473.5L592,532.5L302.22526103503685,488.2780097577689L302.22526103503685,429.2780097577689" stroke="#730073" stroke-width="1" fill="#730073"></path><path d="M592,473.5L302.22526103503685,429.2780097577689A295,236,0,0,1,333.48952938706026,359.8061329119952L592,473.5A0,0,0,0,0,592,473.5" stroke="#990099" stroke-width="1" fill="#990099"></path><text text-anchor="start" x="332.5598251460325" y="409.27236025749585" font-family="Arial" font-size="17" stroke="none" stroke-width="0" fill="#ffffff">5%</text></g><g><path d="M311.43832769292976,546.4280106724877L311.43832769292976,605.4280106724877A295,236,0,0,1,297,532.5L297,473.5A295,236,0,0,0,311.43832769292976,546.4280106724877" stroke="#0c7112" stroke-width="1" fill="#0c7112"></path><path d="M592,473.5L592,532.5L311.43832769292976,605.4280106724877L311.43832769292976,546.4280106724877" stroke="#0c7112" stroke-width="1" fill="#0c7112"></path><path d="M592,473.5L311.43832769292976,546.4280106724877A295,236,0,0,1,302.22526103503674,429.27800975776927L592,473.5A0,0,0,0,0,592,473.5" stroke="#109618" stroke-width="1" fill="#109618"></path><text text-anchor="start" x="315.3575325620739" y="492.5662824418318" font-family="Arial" font-size="17" stroke="none" stroke-width="0" fill="#ffffff">8%</text></g><g><path d="M418.6033505737205,664.4280106724876L418.6033505737205,723.4280106724876A295,236,0,0,1,311.43832769292976,605.4280106724877L311.43832769292976,546.4280106724877A295,236,0,0,0,418.6033505737205,664.4280106724876" stroke="#bf7300" stroke-width="1" fill="#bf7300"></path><path d="M592,473.5L592,532.5L418.6033505737205,723.4280106724876L418.6033505737205,664.4280106724876" stroke="#bf7300" stroke-width="1" fill="#bf7300"></path><path d="M592,473.5L418.6033505737205,664.4280106724876A295,236,0,0,1,311.43832769292976,546.4280106724877L592,473.5A0,0,0,0,0,592,473.5" stroke="#ff9900" stroke-width="1" fill="#ff9900"></path><text text-anchor="start" x="366.35316963808106" y="598.8686483256422" font-family="Arial" font-size="17" stroke="none" stroke-width="0" fill="#ffffff">10%</text></g><g><path d="M765.3966494262795,664.4280106724876L765.3966494262795,723.4280106724876A295,236,0,0,1,418.6033505737204,723.4280106724875L418.6033505737204,664.4280106724875A295,236,0,0,0,765.3966494262795,664.4280106724876" stroke="#a52b0e" stroke-width="1" fill="#a52b0e"></path><path d="M592,473.5L765.3966494262795,664.4280106724876A295,236,0,0,1,418.6033505737204,664.4280106724875L592,473.5A0,0,0,0,0,592,473.5" stroke="#dc3912" stroke-width="1" fill="#dc3912"></path><text text-anchor="start" x="575" y="689.5401462182245" font-family="Arial" font-size="17" stroke="none" stroke-width="0" fill="#ffffff">20%</text></g><g></g></svg>